<svg version="1.1" viewBox="0.0 0.0 404.93438320209975 100.0" fill="none" stroke="none" stroke-linecap="square" stroke-miterlimit="10" xmlns:xlink="http://www.w3.org/1999/xlink" xmlns="http://www.w3.org/2000/svg"><clipPath id="p.0"><path d="m0 0l404.9344 0l0 100.0l-404.9344 0l0 -100.0z" clip-rule="nonzero"/></clipPath><g clip-path="url(#p.0)"><path fill="#000000" fill-opacity="0.0" d="m0 0l404.9344 0l0 100.0l-404.9344 0z" fill-rule="evenodd"/><path fill="#5b92e5" d="m92.75318 37.02632l0 15.217354l2.7378006 0l0 -6.6781387l4.707863 0l0 -2.188404l-4.707863 0l0 -4.1609726l4.9265976 0l0 -2.1898384z" fill-rule="evenodd"/><path fill="#5b92e5" d="m106.54939 42.829674c1.861412 0 2.1902313 2.0797691 2.1902313 3.83078c0 1.7524414 -0.32881927 3.8322105 -2.1902313 3.8322105c-1.7513351 0 -2.190239 -2.0797691 -2.190239 -3.8322105c0 -1.7510109 0.4389038 -3.83078 2.190239 -3.83078zm0 -1.971138c-2.2988968 0 -5.0366898 1.0949173 -5.0366898 5.801918c0 4.817066 2.737793 5.9119835 5.0366898 5.9119835c2.2988892 0 4.926605 -1.0949173 4.926605 -5.9119835c0 -4.488304 -2.5176315 -5.801918 -4.926605 -5.801918z" fill-rule="evenodd"/><path fill="#5b92e5" d="m118.37553 42.829674c1.7513351 0 2.1888123 2.0797691 2.1888123 3.83078c0 1.7524414 -0.4374771 3.8322105 -2.1888123 3.8322105c-1.7527618 0 -2.190239 -2.0797691 -2.190239 -3.8322105c0 -1.7510109 0.4374771 -3.83078 2.190239 -3.83078zm0 -1.971138c-2.3003235 0 -5.0381165 1.0949173 -4.928032 5.801918c0 4.817066 2.6277084 5.9119835 4.928032 5.9119835c2.2988892 0 4.926605 -1.0949173 4.926605 -5.9119835c0 -4.488304 -2.627716 -5.801918 -4.926605 -5.801918z" fill-rule="evenodd"/><path fill="#5b92e5" d="m129.98149 42.829674c1.532608 0 2.0801544 1.6409454 2.0801544 3.83078c0 2.079773 -0.5475464 3.8322105 -2.1902313 3.8322105c-1.6426849 0 -2.0801544 -1.4236755 -1.9700699 -4.050907c0 -2.079773 0.547554 -3.6120834 2.0801468 -3.6120834zm1.7513428 -7.006901l0 6.6781387c-0.43748474 -0.76615524 -1.2037811 -1.7524414 -2.8464508 -1.7524414c-2.2988968 0 -3.8329163 2.1898346 -3.8329163 5.9119835c0 2.9559937 1.2052002 5.693287 3.9429932 5.693287c1.8614197 0 2.627716 -0.8762207 3.0651855 -1.8610764c0 0.76615906 0.11009216 1.5323143 0.11009216 1.7510109l2.627716 0c-0.11009216 -0.4373932 -0.11009216 -1.0949173 -0.11009216 -1.8610725l0 -14.55983z" fill-rule="evenodd"/><path fill="#5b92e5" d="m148.70432 46.77052l0 0.6560898c0 2.079773 -0.54756165 3.2847557 -2.1888123 3.2847557c-1.0951233 0 -1.7527618 -0.6575241 -1.7527618 -1.7524414c0 -1.6409454 1.4239349 -2.188404 3.722824 -2.188404zm-1.7513428 -5.9119835c-1.7513275 0 -2.737793 0.4373932 -3.5040894 0.8762207l0.110076904 2.188404c0.54756165 -0.437397 1.7513428 -1.0934868 3.1752777 -1.0934868c1.4225159 0 1.9700775 1.0934868 1.9700775 2.188404l0 0.4388237l-0.54756165 0c-3.3940125 0 -5.802994 0.76615906 -5.802994 3.8307838c0 1.971138 1.6426849 3.284752 3.3954468 3.284752c1.6412506 0 2.407547 -0.76615524 3.1752777 -1.642376c0 0.54745865 0 1.0949173 0.10864258 1.4236794l2.4089813 0c0 -0.54745865 -0.10865784 -1.2049828 -0.10865784 -1.971138l0 -4.925701c0 -2.9559898 -0.8763733 -4.598366 -4.380478 -4.598366z" fill-rule="evenodd"/><path fill="#5b92e5" d="m159.43533 40.74847c-1.9715118 0 -2.627716 1.2049828 -3.0652008 1.971138c0 -0.76615524 -0.110076904 -1.3136139 -0.110076904 -1.8610725l-2.627716 0c0.21873474 0.54745865 0.21873474 1.3136139 0.21873474 1.971138l0 9.414001l2.7378082 0l0 -6.5680733c0 -1.3136177 0.54756165 -2.6272316 1.8614044 -2.6272316c1.0951233 0 1.532608 0.76615524 1.532608 2.5171661l0 6.6781387l2.737793 0l0 -7.2255974c0 -2.2984695 -0.6576538 -4.2696075 -3.2853546 -4.2696075z" fill-rule="evenodd"/><path fill="#5b92e5" d="m169.72745 42.829674c1.4239349 0 1.9714966 1.6409454 1.9714966 3.83078c0 2.079773 -0.54756165 3.8322105 -2.1902466 3.8322105c-1.6426697 0 -1.9700623 -1.4236755 -1.8614044 -4.050907c0 -2.079773 0.54756165 -3.6120834 2.0801544 -3.6120834zm1.7527618 -7.006901l0 6.6781387c-0.4389038 -0.76615524 -1.313858 -1.7524414 -2.956543 -1.7524414c-2.3003235 0 -3.8329163 2.1898346 -3.8329163 5.9119835c0 2.9559937 1.313858 5.693287 4.051651 5.693287c1.7513428 0 2.627716 -0.8762207 2.956543 -1.8610764c0 0.76615906 0.21873474 1.5323143 0.21873474 1.7510109l2.5190582 0c-0.110076904 -0.4373932 -0.110076904 -1.0949173 -0.110076904 -1.8610725l0 -14.55983z" fill-rule="evenodd"/><path fill="#5b92e5" d="m186.91908 39.434856l1.9700775 7.1169624l-4.051651 0l2.0815735 -7.1169624zm-1.5340118 -2.5171661l-5.0366974 15.325985l2.737793 0l1.0951233 -3.722145l5.1467743 0l1.2037659 3.722145l2.8464508 0l-4.926605 -15.325985z" fill-rule="evenodd"/><path fill="#5b92e5" d="m199.21129 42.93259c1.1408691 0 2.0515594 1.303608 2.0515594 3.6192284c0 2.51717 -0.65763855 3.8307838 -2.3003082 3.8307838c-0.9850464 0 -1.7513428 -1.0949173 -1.7513428 -3.722149c0 -2.2984695 0.54756165 -3.722149 1.8614197 -3.722149c0.04574585 -0.0042877197 0.092926025 -0.0057144165 0.13867188 -0.0057144165zm-0.7963104 -2.1841202c-2.956543 0 -4.050232 2.7372932 -4.050232 5.9119835c0 4.488304 2.4089813 5.5832214 3.941574 5.5832214c1.7513275 0 2.627716 -1.0949173 2.9565277 -1.8610725l0 1.0949173c0 1.7510109 -0.32881165 3.5034485 -2.9565277 3.5034485c-1.4239349 0 -2.627716 -0.54745865 -3.2853546 -0.98628235l0 2.2999c0.54756165 0.32876205 1.9714966 0.76615524 3.8329163 0.76615524c4.0502167 0 5.14534 -2.5185966 5.14534 -6.0206184l0 -8.430576c0 -0.54745865 0.22016907 -1.2035522 0.22016907 -1.7510109l-2.5190582 0c-0.11009216 0.6575203 -0.11009216 1.3136139 -0.11009216 1.7510109l-0.10864258 0c-0.54756165 -0.8747902 -1.4239502 -1.8610764 -3.0666199 -1.8610764z" fill-rule="evenodd"/><path fill="#5b92e5" d="m211.88379 40.74847c-1.6426697 0 -2.627716 1.4236794 -2.9565277 2.1898346c0 -0.6560898 -0.11009216 -1.3136139 -0.11009216 -2.0797691l-2.408966 0c0.110076904 0.54745865 0.110076904 1.3136139 0.110076904 1.971138l-0.110076904 9.414001l2.737793 0l0 -6.239315c0 -2.0811996 1.2037659 -2.7372932 2.2988892 -2.7372932c0.22016907 0 0.54756165 0.11006546 0.7662964 0.11006546l0 -2.628662z" fill-rule="evenodd"/><path fill="#5b92e5" d="m214.40141 36.260166l0 2.7372932l2.7378082 0l0 -2.7372932zm0 4.817066l0 11.166443l2.7378082 0l0 -11.166443z" fill-rule="evenodd"/><path fill="#5b92e5" d="m224.80362 40.74847c-3.831482 0 -5.474167 2.628662 -5.474167 5.9119835c0 3.1746902 1.6426849 5.693287 5.365509 5.693287c1.093689 0 2.0801544 -0.11006546 2.736374 -0.32876205l-0.21875 -2.1898346c-0.43746948 0.2186966 -1.3138428 0.54745865 -1.9714966 0.54745865c-2.188797 0 -3.1752625 -1.642376 -3.1752625 -3.722149c0 -2.5171661 0.98646545 -3.83078 3.0666046 -3.83078c0.76631165 0 1.313858 0.2186966 1.8614197 0.54745865l0.21873474 -2.1898384c-0.43746948 -0.110061646 -1.5325928 -0.4388237 -2.408966 -0.4388237z" fill-rule="evenodd"/><path fill="#5b92e5" d="m229.1841 40.968597l0 7.3342323c0 2.2984695 0.7662964 4.159546 3.2839203 4.159546c1.8614197 0 2.5190582 -0.98485565 3.0666199 -1.8610764c0 0.6575241 0.10865784 1.2049828 0.10865784 1.7524414l2.6277008 0c-0.10864258 -0.54745865 -0.10864258 -1.2049828 -0.10864258 -1.8610764l0.10864258 -9.524067l-2.7363586 0l0 6.4580116c0 1.4236794 -0.4389038 2.737297 -1.9714966 2.737297c-1.0951233 0 -1.6426849 -0.6575241 -1.6426849 -2.408535l0 -6.7867737z" fill-rule="evenodd"/><path fill="#5b92e5" d="m240.90015 35.822773l0 16.420902l2.7363586 0l0 -16.420902z" fill-rule="evenodd"/><path fill="#5b92e5" d="m249.8784 37.902542l-2.737793 0.76615906l0.110076904 2.4085312l-1.7527618 0l0 1.971138l1.7527618 0l0 6.239315c0 2.2998962 1.0951233 3.284752 3.1752777 3.284752c0.8749542 0 1.4225006 -0.32876205 1.7513275 -0.4388237l0 -1.9697075c-0.21873474 0.2186966 -0.54756165 0.32875824 -1.0951233 0.32875824c-0.7662964 0 -1.2037659 -0.32875824 -1.2037659 -1.533741l0 -5.910553l2.1902313 0l0 -1.971138l-2.1902313 0l0 -3.1746902z" fill-rule="evenodd"/><path fill="#5b92e5" d="m253.81998 40.968597l0 7.3342323c0 2.2984695 0.7662964 4.159546 3.2853394 4.159546c1.8614197 0 2.5176392 -0.98485565 3.0651855 -1.8610764c0 0.6575241 0.11010742 1.2049828 0.11010742 1.7524414l2.627716 0c-0.11010742 -0.54745865 -0.11010742 -1.2049828 -0.11010742 -1.8610764l0.11010742 -9.524067l-2.7378235 0l0 6.4580116c0 1.4236794 -0.43746948 2.737297 -1.9714966 2.737297c-1.093689 0 -1.6412354 -0.6575241 -1.6412354 -2.408535l0 -6.7867737z" fill-rule="evenodd"/><path fill="#5b92e5" d="m270.68137 40.74847c-1.6412354 0 -2.627716 1.4236794 -2.8464355 2.1898346c0 -0.6560898 -0.108673096 -1.3136139 -0.108673096 -2.0797691l-2.519043 0c0.110076904 0.54745865 0.110076904 1.3136139 0.110076904 1.971138l-0.110076904 0l0 9.414001l2.737793 0l0 -6.239315c0 -2.0811996 1.2037659 -2.7372932 2.2988892 -2.7372932c0.3288269 0 0.5475464 0.11006546 0.8763733 0.11006546l0 -2.628662z" fill-rule="evenodd"/><path fill="#5b92e5" d="m277.03336 42.71961c1.2037659 0 1.8613892 0.8762207 1.8613892 2.9559937l-3.9429932 0c0 -1.5323143 0.6576538 -2.9559937 2.081604 -2.9559937zm0 -1.971138c-2.956543 0 -4.70932 2.628662 -4.70932 6.022049c0 3.0646248 1.5340271 5.5832214 5.2568665 5.5832214c1.6412354 0 2.8464355 -0.32876205 3.3940125 -0.6575241l-0.21875 -2.0797691c-0.4389038 0.32875824 -1.3138428 0.8762169 -2.9565125 0.8762169c-2.0801697 0 -2.8479004 -1.3136139 -2.8479004 -3.1746864l6.570709 0l0 -0.54745865c0 -4.5983696 -2.0801392 -6.022049 -4.489105 -6.022049z" fill-rule="evenodd"/><path fill="#5b92e5" d="m295.2086 38.887398c1.7527771 0 3.175293 1.4236794 3.175293 5.693283c0 4.2696075 -1.4225159 5.801922 -3.175293 5.801922c-1.7513123 0 -3.1752625 -1.5323143 -3.1752625 -5.801922c0 -4.2696037 1.4239502 -5.693283 3.1752625 -5.693283zm0 -2.079773c-3.1752625 0 -6.0217285 2.2999 -6.0217285 7.773056c0 5.47316 2.846466 7.77306 6.0217285 7.77306c3.175293 0 6.023163 -2.2999 6.023163 -7.77306c0 -5.473156 -2.8478699 -7.773056 -6.023163 -7.773056z" fill-rule="evenodd"/><path fill="#5b92e5" d="m309.0048 40.74847c-1.6426697 0 -2.627716 1.4236794 -2.8464355 2.1898346c0 -0.6560898 -0.110076904 -1.3136139 -0.110076904 -2.0797691l-2.5176392 0c0.10864258 0.54745865 0.10864258 1.3136139 0.10864258 1.971138l-0.10864258 9.414001l2.737793 0l0 -6.239315c0 -2.0811996 1.2037659 -2.7372932 2.2988892 -2.7372932c0.3288269 0 0.5475769 0.11006546 0.8763733 0.11006546l0 -2.628662z" fill-rule="evenodd"/><path fill="#5b92e5" d="m315.6041 42.93259c1.1408691 0 2.0515747 1.303608 2.0515747 3.6192284c0 2.51717 -0.7662964 3.8307838 -2.3003235 3.8307838c-0.9850464 0 -1.8614197 -1.0949173 -1.8614197 -3.722149c0 -2.2984695 0.5475769 -3.722149 1.9714966 -3.722149c0.047180176 -0.0042877197 0.092926025 -0.0057144165 0.13867188 -0.0057144165zm-0.79629517 -2.1841202c-3.065216 0 -4.160309 2.7372932 -4.160309 5.9119835c0 4.488304 2.2988892 5.5832214 3.9415588 5.5832214c1.8614197 0 2.627716 -1.0949173 3.0666199 -1.8610725l0 1.0949173c0 1.7510109 -0.4389038 3.5034485 -3.0666199 3.5034485c-1.3138733 0 -2.5176392 -0.54745865 -3.2839355 -0.98628235l0 2.2999c0.5475769 0.32876205 2.0801697 0.76615524 3.831482 0.76615524c4.161743 0 5.255432 -2.5185966 5.255432 -6.0206184l0 -8.430576c0 -0.54745865 0.110076904 -1.2035522 0.110076904 -1.7510109l-2.408966 0c-0.21875 0.6575203 -0.21875 1.3136139 -0.21875 1.7510109l-0.110076904 0c-0.5475464 -0.8747902 -1.3138428 -1.8610764 -2.9565125 -1.8610764z" fill-rule="evenodd"/><path fill="#5b92e5" d="m328.71408 46.77052l0 0.6560898c0 2.079773 -0.5475769 3.2847557 -2.1902466 3.2847557c-1.093689 0 -1.7513123 -0.6575241 -1.7513123 -1.7524414c0 -1.6409454 1.3138428 -2.188404 3.7228088 -2.188404zm-1.7513428 -5.9119835c-1.7527466 0 -2.737793 0.4373932 -3.6141663 0.8762207l0 2.188404c0.5475464 -0.437397 1.7527466 -1.0934868 3.1752625 -1.0934868c1.5340271 0 2.081604 1.0934868 2.081604 2.188404l0 0.4388237l-0.5475769 0c-3.5040894 0 -5.9130554 0.76615906 -5.9130554 3.8307838c0 1.971138 1.6426697 3.284752 3.3940125 3.284752c1.6426697 0 2.519043 -0.76615524 3.1752625 -1.642376c0 0.54745865 0 1.0949173 0.110076904 1.4236794l2.5176392 0c0 -0.54745865 -0.108673096 -1.2049828 -0.108673096 -1.971138l0 -4.925701c0 -2.9559898 -0.7662964 -4.598366 -4.2703857 -4.598366z" fill-rule="evenodd"/><path fill="#5b92e5" d="m339.22635 40.74847c-1.8614197 0 -2.519043 1.2049828 -2.9565125 1.971138c0 -0.76615524 -0.11010742 -1.3136139 -0.11010742 -1.8610725l-2.627716 0c0.11010742 0.54745865 0.11010742 1.3136139 0.11010742 1.971138l0 9.414001l2.7363586 0l0 -6.5680733c0 -1.3136177 0.5475464 -2.6272316 1.9714966 -2.6272316c1.0951233 0 1.4239502 0.76615524 1.4239502 2.5171661l0 6.6781387l2.7363586 0l0 -7.2255974c0 -2.2984695 -0.6562195 -4.2696075 -3.2839355 -4.2696075z" fill-rule="evenodd"/><path fill="#5b92e5" d="m345.24808 36.260166l0 2.7372932l2.737793 0l0 -2.7372932zm0 4.817066l0 11.166443l2.737793 0l0 -11.166443z" fill-rule="evenodd"/><path fill="#5b92e5" d="m350.39487 41.077232l0 1.971138l4.5977783 0l-4.8179626 6.8968353l0 2.2984695l7.6658325 0l0 -2.0797691l-4.9280396 0l4.8179626 -6.7867737l0 -2.2999z" fill-rule="evenodd"/><path fill="#5b92e5" d="m365.5049 46.77052l0 0.6560898c0 2.079773 -0.5475464 3.2847557 -2.1902466 3.2847557c-1.0950928 0 -1.7513123 -0.6575241 -1.7513123 -1.7524414c0 -1.6409454 1.4225159 -2.188404 3.7228394 -2.188404zm-1.7527466 -5.9119835c-1.7513428 0 -2.7363892 0.4373932 -3.5026855 0.8762207l0 2.188404c0.5461426 -0.437397 1.7513428 -1.0934868 3.0651855 -1.0934868c1.5325928 0 2.0801697 1.0934868 2.0801697 2.188404l0 0.4388237l-0.5475769 0c-3.393982 0 -5.9130554 0.76615906 -5.9130554 3.8307838c0 1.971138 1.6426697 3.284752 3.5040894 3.284752c1.6426697 0 2.408966 -0.76615524 3.0666199 -1.642376c0 0.54745865 0 1.0949173 0.21875 1.4236794l2.408966 0c0 -0.54745865 -0.110076904 -1.2049828 -0.110076904 -1.971138l0 -4.925701c0 -2.9559898 -0.6562195 -4.598366 -4.2703857 -4.598366z" fill-rule="evenodd"/><path fill="#5b92e5" d="m374.26443 37.902542l-2.737793 0.76615906l0 2.4085312l-1.7513428 0l0 1.971138l1.8614197 0l0 6.239315c0 2.2998962 1.2037659 3.284752 3.1752625 3.284752c0.8749695 0 1.4225159 -0.32876205 1.8614197 -0.4388237l0 -1.9697075c-0.3287964 0.2186966 -0.6576233 0.32875824 -1.0951233 0.32875824c-0.8763733 0 -1.3138428 -0.32875824 -1.3138428 -1.533741l0 -5.910553l2.1902466 0l0 -1.971138l-2.1902466 0l0 -3.1746902z" fill-rule="evenodd"/><path fill="#5b92e5" d="m378.53482 36.260166l0 2.7372932l2.7363586 0l0 -2.7372932zm0 4.817066l0 11.166443l2.7363586 0l0 -11.166443z" fill-rule="evenodd"/><path fill="#5b92e5" d="m388.71686 42.829674c1.7527466 0 2.1902466 2.0797691 2.1902466 3.83078c0 1.7524414 -0.4375 3.8322105 -2.1902466 3.8322105c-1.8614197 0 -2.1888123 -2.0797691 -2.1888123 -3.8322105c0 -1.7510109 0.32739258 -3.83078 2.1888123 -3.83078zm0 -1.971138c-2.408966 0 -4.926605 1.0949173 -4.926605 5.801918c0 4.817066 2.5176392 5.9119835 4.926605 5.9119835c2.3003235 0 4.9280396 -1.0949173 4.9280396 -5.9119835c0 -4.488304 -2.627716 -5.801918 -4.9280396 -5.801918z" fill-rule="evenodd"/><path fill="#5b92e5" d="m401.41937 40.74847c-1.9714966 0 -2.627716 1.2049828 -3.0666199 1.971138c0 -0.76615524 -0.10864258 -1.3136139 -0.10864258 -1.8610725l-2.6291504 0c0.22015381 0.54745865 0.22015381 1.3136139 0.22015381 1.971138l-0.110076904 9.414001l2.737793 0l0 -6.5680733c0 -1.3136177 0.5475769 -2.6272316 1.9700928 -2.6272316c1.0950928 0 1.5340271 0.76615524 1.5340271 2.5171661l0 6.6781387l2.7363586 0l0 -7.2255974c0 -2.2984695 -0.7662964 -4.2696075 -3.2839355 -4.2696075z" fill-rule="evenodd"/><path fill="#5b92e5" d="m97.023575 67.569664c1.7513275 0 2.190239 2.079773 2.190239 3.8322144c0 1.7510071 -0.43891144 3.83078 -2.190239 3.83078c-1.7527618 0 -2.190239 -2.079773 -2.190239 -3.83078c0 -1.7524414 0.4374771 -3.8322144 2.190239 -3.8322144zm0 -2.079773c-2.3003235 0 -5.0366898 1.3136139 -5.0366898 5.9119873c0 4.7070007 2.7363663 5.801918 5.0366898 5.801918c2.2988892 0 4.926605 -1.0949173 4.926605 -5.9119873c0 -4.488304 -2.627716 -5.801918 -4.926605 -5.801918z" fill-rule="evenodd"/><path fill="#5b92e5" d="m108.19207 60.125366c-2.4089737 0 -3.2853546 1.5323143 -3.2853546 3.1746902l0 2.2998962l-1.8614197 0l0 2.079773l1.8614197 0l0 9.195305l2.737793 0l0 -9.3053665l2.0801544 0l0 -2.079773l-2.0801544 0l0 -1.8610725c0 -0.8762207 0.4374771 -1.4236794 1.313858 -1.4236794c0.32881927 0 0.7662964 0 1.0951157 0.2201271l0.10865784 -1.971138c-0.54756165 -0.110061646 -1.2037735 -0.32876205 -1.9700699 -0.32876205z" fill-rule="evenodd"/><path fill="#5b92e5" d="m120.78307 62.643963l-2.7363663 0.8747902l0 2.2999039l-1.7527618 0l0 2.0797653l1.7527618 0l0 6.130684c0 2.2984695 1.0951157 3.2833252 3.17527 3.2833252c0.8749542 0 1.4225082 -0.32733154 1.7513351 -0.43740082l0 -1.971138c-0.21874237 0.22013092 -0.54756165 0.32876587 -1.0951233 0.32876587c-0.7662964 0 -1.2037735 -0.32876587 -1.2037735 -1.5323105l0 -5.8019257l2.2988968 0l0 -2.0797653l-2.190239 0l0 -3.174694z" fill-rule="evenodd"/><path fill="#5b92e5" d="m124.834724 60.564194l-0.21873474 16.420906l2.737793 0l0 -6.5695114c0 -1.3136139 0.54756165 -2.5171661 1.9700699 -2.5171661c1.0951233 0 1.5340271 0.6560974 1.5340271 2.4085388l0 6.6781387l2.7363586 0l0 -7.225601c0 -2.2984695 -0.7662964 -4.2696075 -3.2839203 -4.2696075c-1.6426697 0 -2.1902313 0.98485565 -2.737793 1.6423798l0 -6.568077z" fill-rule="evenodd"/><path fill="#5b92e5" d="m140.3837 67.46103c1.2037659 0 1.9700623 0.98485565 1.9700623 2.9545593l-4.0502167 0c0 -1.4222488 0.7662964 -2.9545593 2.0801544 -2.9545593zm0 -1.971138c-2.8478851 0 -4.5992126 2.6272278 -4.5992126 6.0206146c0 3.0660553 1.4239349 5.6932907 5.1467743 5.6932907c1.6412506 0 2.8464508 -0.4388275 3.3940125 -0.76615906l-0.11009216 -1.971138c-0.54756165 0.2186966 -1.313858 0.76615906 -2.9565277 0.76615906c-2.0801544 0 -2.9551086 -1.2035522 -2.9551086 -3.1746902l6.569275 0l0 -0.54746246c0 -4.5969315 -1.9714966 -6.0206146 -4.4891205 -6.0206146z" fill-rule="evenodd"/><path fill="#5b92e5" d="m152.86604 61.65768l0 9.852825c0 4.050911 2.2988892 5.6932907 5.14534 5.6932907c2.956543 0 5.2568665 -1.6423798 5.2568665 -5.6932907l0 -9.852825l-2.7378082 0l0 9.852825c0 2.6272354 -0.65763855 3.503456 -2.2988892 3.503456c-1.7527618 0 -2.5190582 -0.8762207 -2.5190582 -3.503456l0 -9.852825z" fill-rule="evenodd"/><path fill="#5b92e5" d="m171.69894 65.48989c-1.8614197 0 -2.5190582 1.3136139 -2.956543 1.971138c0 -0.6575241 -0.110076904 -1.204979 -0.110076904 -1.7524414l-2.627716 0c0.11009216 0.54746246 0.11009216 1.2049866 0.11009216 1.8610764l0 9.415436l2.737793 0l0 -6.5695114c0 -1.3136139 0.54756165 -2.5171661 1.9700623 -2.5171661c1.0951233 0 1.4239502 0.6560974 1.4239502 2.4085388l0 6.6781387l2.737793 0l0 -7.225601c0 -2.2984695 -0.65763855 -4.2696075 -3.2853546 -4.2696075z" fill-rule="evenodd"/><path fill="#5b92e5" d="m177.61201 61.001587l0 2.7372932l2.7363586 0l0 -2.7372932zm0.10864258 4.81707l0 11.166443l2.7378082 0l0 -11.166443z" fill-rule="evenodd"/><path fill="#5b92e5" d="m186.91908 62.643963l-2.737793 0.8747902l-0.110076904 0l0 2.2999039l-1.7513428 0l0 2.0797653l1.9715118 0l0 6.130684c0 2.2984695 1.093689 3.2833252 3.1752625 3.2833252c0.8749542 0 1.4225159 -0.32733154 1.7513428 -0.43740082l0 -1.971138c-0.21875 0.22013092 -0.54756165 0.32876587 -1.0951233 0.32876587c-0.7662964 0 -1.2037811 -0.32876587 -1.2037811 -1.5323105l0 -5.8019257l2.1888123 0l0 -2.0797653l-2.1888123 0l0 -3.174694z" fill-rule="evenodd"/><path fill="#5b92e5" d="m195.13104 67.46103c1.2037811 0 1.9700775 0.98485565 1.9700775 2.9545593l-4.050232 0c0 -1.4222488 0.76631165 -2.9545593 2.0801544 -2.9545593zm0 -1.971138c-2.8478699 0 -4.5992126 2.6272278 -4.5992126 6.0206146c0 3.0660553 1.4239502 5.6932907 5.1467743 5.6932907c1.6412506 0 2.8464508 -0.4388275 3.3940125 -0.76615906l-0.110076904 -1.971138c-0.54756165 0.2186966 -1.4225159 0.76615906 -2.956543 0.76615906c-2.0801544 0 -2.9551086 -1.2035522 -2.9551086 -3.1746902l6.56929 0l0 -0.54746246c0 -4.5969315 -1.9714966 -6.0206146 -4.4891357 -6.0206146z" fill-rule="evenodd"/><path fill="#5b92e5" d="m206.18945 67.569664c1.532608 0 2.0801544 1.6423798 2.0801544 3.8322144c0 2.0797653 -0.5475464 3.83078 -2.188797 3.83078c-1.5340271 0 -1.8614197 -1.3136139 -1.8614197 -3.9408493c0 -2.1898346 0.5461273 -3.722145 1.9700623 -3.722145zm1.9715118 -7.0054703l0 6.7867737c-0.4389038 -0.8762207 -1.2052155 -1.8610764 -2.8478851 -1.8610764c-2.4089813 0 -3.831482 2.1898346 -3.831482 5.9119873c0 3.064621 1.2037659 5.801918 3.9415588 5.801918c1.7513428 0 2.5190582 -0.98485565 2.956543 -1.971138c0 0.8762207 0.10865784 1.5323105 0.10865784 1.7524414l2.6291351 0c-0.110076904 -0.32876587 -0.110076904 -1.0949173 -0.110076904 -1.8610764l0 -14.55983z" fill-rule="evenodd"/><path fill="#5b92e5" d="m219.43811 61.65768l0 15.327419l2.627716 0l0 -11.823967l5.146759 11.823967l3.2853699 0l0 -15.327419l-2.627716 0l0 12.042667l-5.0366974 -12.042667z" fill-rule="evenodd"/><path fill="#5b92e5" d="m239.25746 71.510506l0 0.8762207c0 1.8610764 -0.5475464 3.1746902 -2.1902313 3.1746902c-1.0951233 0 -1.8614197 -0.7661514 -1.8614197 -1.8610687c0 -1.6423798 1.4239502 -2.1898422 3.7228394 -2.1898422zm-1.8614044 -6.0206146c-1.7527618 0 -2.7378082 0.4373932 -3.5041046 0.8762207l0 2.188408c0.54756165 -0.43740082 1.7513428 -1.0934906 3.0652008 -1.0934906c1.5340118 0 2.0815735 1.0934906 2.0815735 2.188408l0 0.4388199l-0.54756165 0c-3.3954315 0 -5.9130707 0.76615906 -5.9130707 3.8307877c0 1.971138 1.6426849 3.284752 3.5041046 3.284752c1.6412506 0 2.408966 -0.76615906 3.0651855 -1.7524414c0 0.54746246 0 1.204979 0.21873474 1.5337448l2.4089813 0c0 -0.54746246 -0.10865784 -1.2049866 -0.10865784 -2.0812073l0 -4.9256973c0 -2.8459244 -0.65763855 -4.488304 -4.2703857 -4.488304z" fill-rule="evenodd"/><path fill="#5b92e5" d="m248.12564 62.643963l-2.736374 0.8747902l0 2.2999039l-1.7527618 0l0 2.0797653l1.7527618 0l0 6.130684c0 2.2984695 1.0951233 3.2833252 3.1752777 3.2833252c0.7662964 0 1.313858 -0.32733154 1.7513275 -0.43740082l0 -1.971138c-0.32881165 0.22013092 -0.5475464 0.32876587 -1.095108 0.32876587c-0.8749542 0 -1.2037811 -0.32876587 -1.2037811 -1.5323105l0 -5.8019257l2.2988892 0l0 -2.0797653l-2.1902313 0l0 -3.174694z" fill-rule="evenodd"/><path fill="#5b92e5" d="m252.17729 61.001587l0 2.7372932l2.737793 0l0 -2.7372932zm0 4.81707l0 11.166443l2.737793 0l0 -11.166443z" fill-rule="evenodd"/><path fill="#5b92e5" d="m262.36075 67.569664c1.7513428 0 2.1902466 2.079773 2.1902466 3.8322144c0 1.7510071 -0.4389038 3.83078 -2.1902466 3.83078c-1.7527466 0 -2.1902466 -2.079773 -2.1902466 -3.83078c0 -1.7524414 0.4375 -3.8322144 2.1902466 -3.8322144zm0 -2.079773c-2.3003235 0 -4.9280396 1.3136139 -4.9280396 5.801918c0 4.81707 2.627716 5.9119873 4.9280396 5.9119873c2.2988892 0 4.926605 -1.0949173 4.926605 -5.9119873c0 -4.488304 -2.627716 -5.801918 -4.926605 -5.801918z" fill-rule="evenodd"/><path fill="#5b92e5" d="m275.06183 65.48989c-1.8613892 0 -2.6276855 1.3136139 -2.9565125 1.971138c0 -0.6575241 -0.21875 -1.204979 -0.21875 -1.7524414l-2.519043 0c0.110076904 0.54746246 0.110076904 1.2049866 0.110076904 1.8610764l0 9.415436l2.737793 0l0 -6.5695114c0 -1.3136139 0.5475464 -2.5171661 1.8614197 -2.5171661c1.0951233 0 1.5325928 0.6560974 1.5325928 2.4085388l0 6.6781387l2.737793 0l0 -7.225601c0 -2.2984695 -0.6576538 -4.2696075 -3.2853699 -4.2696075z" fill-rule="evenodd"/><path fill="#5b92e5" d="m284.36893 65.70859c-2.2988892 0 -3.8329163 1.6423798 -3.8329163 3.0660553c0 1.8610764 1.2052002 2.5171661 2.3003235 3.1746902l1.0951233 0.6560974c0.98501587 0.54745483 1.3138428 0.984848 1.3138428 1.4236755c0 0.76615906 -0.8763733 1.0949173 -1.8614197 1.0949173c-1.3138428 0 -2.408966 -0.54746246 -2.8478699 -0.6575241l0 2.1898346c0.5475464 0.2186966 1.7527466 0.54746246 3.1752625 0.54746246c2.408966 0 4.2703857 -1.3136139 4.2703857 -3.284752c0 -1.4222488 -0.7662964 -1.9697113 -2.0801392 -2.9559937l-1.4225159 -0.76615906c-0.6576538 -0.54745483 -1.2052002 -0.984848 -1.2052002 -1.5323105c0 -0.6560898 0.43746948 -1.0949173 1.5325928 -1.0949173c0.9864502 0 1.6426697 0.32875824 2.3003235 0.54745483l0.10864258 -2.0797653c-0.21871948 0 -1.3138428 -0.32876587 -2.8464355 -0.32876587z" fill-rule="evenodd"/><path fill="#5b92e5" d="m38.990864 22.13916l1.5325928 6.896837l-3.283924 0l1.4225082 -6.896837zm-2.298893 -2.6272297l-4.599209 15.654749l3.5040932 0l0.8763809 -3.613514l4.597782 0l1.0951195 3.613514l3.614174 0l-4.380474 -15.654749zm2.190239 15.215925c0 0 -3.175274 3.284752 -3.175274 6.0206146c0 2.8473587 2.1888084 3.613514 2.9551048 3.613514l0.3288231 0c0.7662964 0 2.9565353 -0.76615524 2.9565353 -3.613514c0 -2.7358627 -3.0651894 -6.0206146 -3.0651894 -6.0206146zm0.10865402 -19.266834c5.4755936 0 10.620934 1.3136148 15.3288 3.722148c-3.17527 6.6781406 -10.729588 22.66022 -10.729588 22.770285c-1.4239388 3.0646248 -3.6141777 2.6272278 -4.380474 5.6918564l-0.10865402 1.3136139l-0.21873856 0l-0.22016907 -1.3136139c-0.65621185 -3.0646286 -2.8464508 -2.6272316 -4.3790436 -5.6918564c0 0 -7.4456635 -16.092144 -10.620935 -22.770285c4.48913 -2.408533 9.854639 -3.722148 15.328802 -3.722148zm24.63588 23.426376c2.1902351 0 2.8478813 2.4085312 2.8478813 5.4745865c0 2.9559937 -0.7662964 5.47316 -2.8478813 5.47316c-2.1888084 0 -2.8464508 -2.5171661 -2.8464508 -5.47316c0 -3.0660553 0.65764236 -5.4745865 2.8464508 -5.4745865zm-53.979626 -2.5171661l0 15.763382l3.6127481 0l0 -6.568077l5.913069 0l0 -2.7358627l-5.913069 0l0 -3.722149l6.1318073 0l0 -2.7372932zm53.87097 -0.11006546c-4.380474 0 -6.5692825 3.5034523 -6.5692825 8.101818c0 4.596939 2.1888084 7.9917564 6.5692825 7.9917564c4.489128 0 6.679367 -3.5034523 6.679367 -7.9917564c0 -4.7070007 -2.190239 -8.101818 -6.679367 -8.101818zm-7.8831367 -16.748236c0.8749504 0.4373951 1.6412468 0.98485374 2.5176277 1.5323124c-3.17527 7.1155357 -12.9198265 28.900963 -12.9198265 28.900963c-1.6426773 3.1746902 -4.1617355 3.2833252 -5.1467705 5.1443977c-0.65621567 1.0949173 -0.65621567 2.079773 -0.65621567 2.1898346l-0.4389038 0c-0.10865402 0 -0.10865402 -1.0949173 -0.65621185 -2.1898346c-0.98646545 -1.8610725 -3.7228317 -1.8610725 -5.256859 -5.1443977c0 0 -9.744553 -21.785427 -12.919825 -28.900963c0.8763809 -0.54745865 1.7513313 -1.0949173 2.5190582 -1.5323124l10.510851 24.083899c-0.11008453 2.188404 0 2.6272316 0.21873856 3.722149c0.3288231 2.8459282 3.2853546 5.2544594 5.5842476 5.801918c2.4089737 -0.54745865 5.365509 -2.9559898 6.0231514 -5.9119835c0.10865402 -1.0949173 0.21873856 -1.5323105 0.10865402 -3.722149l10.512283 -23.973833zm8.21196 37.548813c-0.3288231 0.32876205 -0.65764236 0.98485565 -0.7662964 1.642376c-0.3288231 0.6560936 -0.3288231 1.2035522 0 1.7510109c0.21873474 0.437397 0.5461273 0.6575241 1.0936852 0.8762207c0.18299866 0.054317474 0.35312653 0.078617096 0.51325226 0.078617096c0.79774475 0 1.3310089 -0.60749435 1.7870712 -1.0648994c0.44605255 -0.3573494 0.8206253 -0.7146988 1.2409439 -0.7146988c0.09436035 0 0.1915741 0.01858139 0.29164886 0.058605194c0.6576462 0.110061646 0.6576462 0.8762207 0.54756165 1.3136139c-0.21874237 0.437397 -0.54756165 0.98485565 -0.7662964 1.0949173l-0.11008453 0.10863495l0.98646545 0.4388237l0 -0.110061646c0.32739258 -0.437397 0.5461273 -0.8762207 0.65621185 -1.2035522c0.54756165 -1.5323143 0.11008453 -2.6272316 -1.0951157 -3.0660553c-0.24590302 -0.08862305 -0.47464752 -0.12864685 -0.68624115 -0.12864685c-0.822052 0 -1.3967743 0.5917702 -1.8313904 1.1149292c-0.38028717 0.38022232 -0.760582 0.677536 -1.1422958 0.677536c-0.05718994 0 -0.11437225 -0.0071487427 -0.1715622 -0.021442413c-0.11008453 0 -0.22016907 -0.10863495 -0.32881927 -0.2186966c-0.21873856 -0.32876205 -0.21873856 -0.76615524 0 -0.8762207c0.21873474 -0.54745865 0.32881927 -0.6560936 0.65621185 -1.0949173l0.11008453 -0.10863495l-0.98503494 -0.54745865zm-48.396812 3.0646248l-5.913069 3.0660553l0.54755974 1.2035522c0 0 2.5176287 -1.2035522 2.6277122 -1.3136139c0.11008453 0.110061646 1.205203 2.2984695 1.205203 2.2984695l0.87495136 -0.54602814c0 0 -1.2037735 -2.1898384 -1.3138571 -2.2999c0.32882214 0 1.4239407 -0.54745865 1.5325947 -0.6560936c0.65764236 1.3136139 1.4239397 2.4085312 1.4239397 2.4085312l0.8763809 -0.54745865c0 0 -0.54755974 -0.8762169 -0.8763809 -1.642376l-0.98503494 -1.971138zm45.877754 2.408535l-0.54756165 0.98485184l5.694332 3.284752l0.54756165 -0.984848l-5.694332 -3.2847557zm-2.627716 -40.9422c0.7663002 0.54745865 1.6426811 1.2035522 2.298893 1.7510109c-2.7363663 6.3493786 -14.671158 34.702885 -14.671158 34.702885c-1.9715004 5.1458244 -5.8044167 3.3933868 -6.7894516 7.6629906c-0.32881927 1.0949173 -0.32881927 1.4236832 -0.32881927 1.4236832l-0.32739258 0c0 0 0 -0.54746246 -0.3288231 -1.4236832c-0.7662964 -4.2696037 -4.8179474 -2.6272278 -6.789448 -7.6629906c0 0 -11.934792 -28.353506 -14.67116 -34.702885c0.7662983 -0.6560936 1.5325947 -1.2035522 2.298893 -1.7510109l12.044874 29.885818c0 4.3782425 2.0801544 9.414005 7.5543175 10.618984c5.5842476 -1.3136139 7.664402 -6.2407417 7.664402 -10.837681l12.044872 -29.667122zm-39.527206 44.445652l-5.1467714 4.2696075l0.8763809 0.984848l5.036687 -4.2696075l-0.7662964 -0.984848zm39.964684 -0.110069275l-0.8749504 0.8762207c0 0 3.17527 2.5186005 3.7228317 3.0660553c-0.7662964 -0.110061646 -5.256855 -1.4236755 -5.256855 -1.4236755l-1.093689 0.8762207l4.7078667 4.8156357l0.98503494 -0.6560974c0 0 -2.9565353 -3.0660553 -3.504097 -3.6120834l0 0c0.7663002 0.2186966 5.365513 1.5323181 5.365513 1.5323181l0.8763809 -1.0949173l-4.9280357 -4.379677zm-35.585636 6.022049l0 0c-0.21873856 0.4373932 -0.7662983 2.7358627 -0.7662983 3.0646286c-0.10865402 -0.2186966 -0.65621185 -0.43740082 -1.0951176 -0.76615906c-0.32882118 -0.32875824 -0.7662983 -0.6575241 -0.8749523 -0.76615906c0.21873856 -0.110061646 2.298891 -1.4236755 2.7363682 -1.5323105zm29.235092 1.2035522l0 0c0.3288231 0.32875824 2.0801544 1.6423798 2.3003197 1.8610764c-0.11008072 0.110061646 -0.4389038 0.2186966 -0.7677269 0.54745483c-0.5461273 0.2186966 -0.98503494 0.32876587 -1.093689 0.54746246c0 -0.32876587 -0.4389038 -2.5186005 -0.4389038 -2.9559937zm-5.228264 2.1069336c0.1915741 0 0.41031265 0.028587341 0.6304817 0.082901c0.10865402 0.2186966 0.21873856 0.32876587 0.32739258 0.54746246l0 0.32875824c0 0.10863495 -0.10865402 0.2186966 -0.10865402 0.4373932c-0.21873856 0.2186966 -0.6576462 0.54746246 -0.7663002 0.54746246c0 0 -0.54755783 0.10863495 -0.8763809 0.2186966c0 -0.110061646 -0.54755783 -1.7510071 -0.54755783 -1.8610764c0.11008453 0 0.65764236 -0.2186966 0.8763809 -0.2186966c0.10865402 -0.05431366 0.27306366 -0.082901 0.46463776 -0.082901zm-23.788092 -4.8442307l-6.130377 3.503456l0.8749523 0.7661514c0 0 1.3138561 -0.6560898 1.4239388 -0.7661514c0.10865402 0.110061646 0.65621376 0.6575165 1.313858 0.984848c0.7662964 0.6575241 1.4239388 0.98629 1.4239388 0.98629c0 0.2186966 -0.22016716 1.5323105 -0.22016716 1.5323105l1.0951195 0.6575241l1.2052021 -6.896843l-0.98646545 -0.76758575zm28.797617 1.3136215l-0.8763809 0.32875824l0.98646545 7.0069046l1.0951195 -0.54746246c0 0 -0.3288231 -1.3136139 -0.3288231 -1.5323105c0.21873856 0 0.8749504 -0.22013092 1.422512 -0.6575241c0.54755783 -0.4373932 1.2052002 -0.76615906 1.2052002 -0.76615906c0.10865402 0.110069275 1.2037735 0.8762207 1.2037735 0.8762207l0.98646545 -0.6575241l-5.694332 -4.0509033zm-24.63588 1.3150406l-0.43890572 0.98485565c0 0 0.7677269 0.54745483 2.081583 0.98485565c0 0.2186966 -1.8614159 5.1458282 -1.8614159 5.1458282l1.2037735 0.4373932c0 0 1.6426773 -4.9256973 1.8614159 -5.254463c1.313858 0.4373932 2.1902351 0.54746246 2.1902351 0.54746246l0.21873856 -0.8762207c-0.7662964 -0.2186966 -1.6426773 -0.43740082 -2.7377949 -0.8762207c-1.422512 -0.54746246 -2.5176296 -1.0934906 -2.5176296 -1.0934906zm19.845093 1.1763916c-0.35598373 0 -0.7391319 0.08148193 -1.1222801 0.24585724l-1.7513351 0.54746246l1.8614159 6.2407455l1.2037735 -0.110069275c0 0 -0.7662964 -2.1898346 -0.7662964 -2.5185928c0.21873856 -0.10863495 0.7662964 -0.2186966 0.7662964 -0.2186966c1.0951195 -0.43740082 1.8614159 -1.0949173 1.8614159 -2.079773c0 -0.2186966 0 -0.4373932 -0.21873856 -0.6560898c-0.21873474 -0.54746246 -0.54755783 -0.98629 -0.8749504 -1.2049866c-0.27449417 -0.1643753 -0.60331345 -0.24585724 -0.959301 -0.24585724zm-31.561146 -50.111774l13.686123 35.031647c-0.8749523 5.693287 0.8763809 10.400288 4.928032 11.7139015c2.7377968 0.98485565 2.9565353 2.2984695 2.9565353 6.3493805l0 0.32875824c0 2.954567 -0.21873856 5.363098 -0.4389038 6.8968353c-18.175253 -0.8762131 -32.84784 -15.983505 -32.84784 -34.484184c0 -10.290222 4.5992126 -19.595592 11.716055 -25.836338zm45.65901 0c7.2269287 6.2407455 11.716057 15.546116 11.716057 25.836338c0 18.500679 -14.672592 33.60797 -32.957928 34.59282c-0.21873856 -1.5323105 -0.4374733 -3.9408417 -0.4374733 -6.7867737l0 -0.4388199c0 -4.159546 0.10865402 -5.47316 2.8464508 -6.3493805c4.160305 -1.3136139 5.913067 -6.0206146 4.9266014 -11.712475l13.906292 -35.14171zm-22.884548 -12.917454c-21.350525 0 -38.76091 17.297125 -38.76091 38.75379c0 21.456673 17.410385 38.862427 38.76091 38.862427c21.46061 0 38.87099 -17.515823 38.87099 -38.862427c0 -21.348032 -17.410381 -38.75379 -38.87099 -38.75379z" fill-rule="evenodd"/></g></svg>